<mxfile host="app.diagrams.net" modified="2024-03-26T01:53:43.447Z" agent="Mozilla/5.0 (Windows NT 10.0; Win64; x64) AppleWebKit/537.36 (KHTML, like Gecko) Chrome/123.0.0.0 Safari/537.36" etag="vbWdcwtAKfKJm3VFR3P_" version="24.1.0" type="device">
  <diagram name="Страница — 1" id="DhWtc1AITWDPEzfAjPhT">
    <mxGraphModel dx="3827" dy="2760" grid="1" gridSize="10" guides="1" tooltips="1" connect="1" arrows="1" fold="1" page="1" pageScale="1" pageWidth="827" pageHeight="1169" math="0" shadow="0">
      <root>
        <mxCell id="0" />
        <mxCell id="1" parent="0" />
        <mxCell id="QPeFIXPxmIHF3lI81vWk-42" value="Hosts" style="shape=table;startSize=40;container=1;collapsible=0;childLayout=tableLayout;strokeColor=default;fontSize=16;" vertex="1" parent="1">
          <mxGeometry x="-80" y="-14" width="280" height="244" as="geometry" />
        </mxCell>
        <mxCell id="QPeFIXPxmIHF3lI81vWk-43" value="" style="shape=tableRow;horizontal=0;startSize=0;swimlaneHead=0;swimlaneBody=0;strokeColor=inherit;top=0;left=0;bottom=0;right=0;collapsible=0;dropTarget=0;fillColor=none;points=[[0,0.5],[1,0.5]];portConstraint=eastwest;fontSize=16;" vertex="1" parent="QPeFIXPxmIHF3lI81vWk-42">
          <mxGeometry y="40" width="280" height="60" as="geometry" />
        </mxCell>
        <mxCell id="QPeFIXPxmIHF3lI81vWk-44" value="Host_ID" style="shape=partialRectangle;html=1;whiteSpace=wrap;connectable=0;strokeColor=inherit;overflow=hidden;fillColor=none;top=0;left=0;bottom=0;right=0;pointerEvents=1;fontSize=16;" vertex="1" parent="QPeFIXPxmIHF3lI81vWk-43">
          <mxGeometry width="280" height="60" as="geometry">
            <mxRectangle width="280" height="60" as="alternateBounds" />
          </mxGeometry>
        </mxCell>
        <mxCell id="QPeFIXPxmIHF3lI81vWk-47" value="" style="shape=tableRow;horizontal=0;startSize=0;swimlaneHead=0;swimlaneBody=0;strokeColor=inherit;top=0;left=0;bottom=0;right=0;collapsible=0;dropTarget=0;fillColor=none;points=[[0,0.5],[1,0.5]];portConstraint=eastwest;fontSize=16;" vertex="1" parent="QPeFIXPxmIHF3lI81vWk-42">
          <mxGeometry y="100" width="280" height="70" as="geometry" />
        </mxCell>
        <mxCell id="QPeFIXPxmIHF3lI81vWk-48" value="HOST_product_reservtn" style="shape=partialRectangle;html=1;whiteSpace=wrap;connectable=0;strokeColor=inherit;overflow=hidden;fillColor=none;top=0;left=0;bottom=0;right=0;pointerEvents=1;fontSize=16;" vertex="1" parent="QPeFIXPxmIHF3lI81vWk-47">
          <mxGeometry width="280" height="70" as="geometry">
            <mxRectangle width="280" height="70" as="alternateBounds" />
          </mxGeometry>
        </mxCell>
        <mxCell id="QPeFIXPxmIHF3lI81vWk-51" value="" style="shape=tableRow;horizontal=0;startSize=0;swimlaneHead=0;swimlaneBody=0;strokeColor=inherit;top=0;left=0;bottom=0;right=0;collapsible=0;dropTarget=0;fillColor=none;points=[[0,0.5],[1,0.5]];portConstraint=eastwest;fontSize=16;" vertex="1" parent="QPeFIXPxmIHF3lI81vWk-42">
          <mxGeometry y="170" width="280" height="74" as="geometry" />
        </mxCell>
        <mxCell id="QPeFIXPxmIHF3lI81vWk-52" value="Host_product_id" style="shape=partialRectangle;html=1;whiteSpace=wrap;connectable=0;strokeColor=inherit;overflow=hidden;fillColor=none;top=0;left=0;bottom=0;right=0;pointerEvents=1;fontSize=16;" vertex="1" parent="QPeFIXPxmIHF3lI81vWk-51">
          <mxGeometry width="280" height="74" as="geometry">
            <mxRectangle width="280" height="74" as="alternateBounds" />
          </mxGeometry>
        </mxCell>
        <mxCell id="QPeFIXPxmIHF3lI81vWk-55" value="Hosts_database" style="shape=table;startSize=30;container=1;collapsible=0;childLayout=tableLayout;strokeColor=default;fontSize=16;" vertex="1" parent="1">
          <mxGeometry x="280" width="280" height="270" as="geometry" />
        </mxCell>
        <mxCell id="QPeFIXPxmIHF3lI81vWk-68" style="shape=tableRow;horizontal=0;startSize=0;swimlaneHead=0;swimlaneBody=0;strokeColor=inherit;top=0;left=0;bottom=0;right=0;collapsible=0;dropTarget=0;fillColor=none;points=[[0,0.5],[1,0.5]];portConstraint=eastwest;fontSize=16;" vertex="1" parent="QPeFIXPxmIHF3lI81vWk-55">
          <mxGeometry y="30" width="280" height="40" as="geometry" />
        </mxCell>
        <mxCell id="QPeFIXPxmIHF3lI81vWk-69" value="ID" style="shape=partialRectangle;html=1;whiteSpace=wrap;connectable=0;strokeColor=inherit;overflow=hidden;fillColor=none;top=0;left=0;bottom=0;right=0;pointerEvents=1;fontSize=16;" vertex="1" parent="QPeFIXPxmIHF3lI81vWk-68">
          <mxGeometry width="280" height="40" as="geometry">
            <mxRectangle width="280" height="40" as="alternateBounds" />
          </mxGeometry>
        </mxCell>
        <mxCell id="QPeFIXPxmIHF3lI81vWk-56" value="" style="shape=tableRow;horizontal=0;startSize=0;swimlaneHead=0;swimlaneBody=0;strokeColor=inherit;top=0;left=0;bottom=0;right=0;collapsible=0;dropTarget=0;fillColor=none;points=[[0,0.5],[1,0.5]];portConstraint=eastwest;fontSize=16;" vertex="1" parent="QPeFIXPxmIHF3lI81vWk-55">
          <mxGeometry y="70" width="280" height="40" as="geometry" />
        </mxCell>
        <mxCell id="QPeFIXPxmIHF3lI81vWk-57" value="NAME,SURNAME" style="shape=partialRectangle;html=1;whiteSpace=wrap;connectable=0;strokeColor=inherit;overflow=hidden;fillColor=none;top=0;left=0;bottom=0;right=0;pointerEvents=1;fontSize=16;" vertex="1" parent="QPeFIXPxmIHF3lI81vWk-56">
          <mxGeometry width="280" height="40" as="geometry">
            <mxRectangle width="280" height="40" as="alternateBounds" />
          </mxGeometry>
        </mxCell>
        <mxCell id="QPeFIXPxmIHF3lI81vWk-60" value="" style="shape=tableRow;horizontal=0;startSize=0;swimlaneHead=0;swimlaneBody=0;strokeColor=inherit;top=0;left=0;bottom=0;right=0;collapsible=0;dropTarget=0;fillColor=none;points=[[0,0.5],[1,0.5]];portConstraint=eastwest;fontSize=16;" vertex="1" parent="QPeFIXPxmIHF3lI81vWk-55">
          <mxGeometry y="110" width="280" height="40" as="geometry" />
        </mxCell>
        <mxCell id="QPeFIXPxmIHF3lI81vWk-61" value="COUNTRY RESIDENCE" style="shape=partialRectangle;html=1;whiteSpace=wrap;connectable=0;strokeColor=inherit;overflow=hidden;fillColor=none;top=0;left=0;bottom=0;right=0;pointerEvents=1;fontSize=16;" vertex="1" parent="QPeFIXPxmIHF3lI81vWk-60">
          <mxGeometry width="280" height="40" as="geometry">
            <mxRectangle width="280" height="40" as="alternateBounds" />
          </mxGeometry>
        </mxCell>
        <mxCell id="QPeFIXPxmIHF3lI81vWk-75" style="shape=tableRow;horizontal=0;startSize=0;swimlaneHead=0;swimlaneBody=0;strokeColor=inherit;top=0;left=0;bottom=0;right=0;collapsible=0;dropTarget=0;fillColor=none;points=[[0,0.5],[1,0.5]];portConstraint=eastwest;fontSize=16;" vertex="1" parent="QPeFIXPxmIHF3lI81vWk-55">
          <mxGeometry y="150" width="280" height="40" as="geometry" />
        </mxCell>
        <mxCell id="QPeFIXPxmIHF3lI81vWk-76" value="DOC_OF_RESIDENCE" style="shape=partialRectangle;html=1;whiteSpace=wrap;connectable=0;strokeColor=inherit;overflow=hidden;fillColor=none;top=0;left=0;bottom=0;right=0;pointerEvents=1;fontSize=16;" vertex="1" parent="QPeFIXPxmIHF3lI81vWk-75">
          <mxGeometry width="280" height="40" as="geometry">
            <mxRectangle width="280" height="40" as="alternateBounds" />
          </mxGeometry>
        </mxCell>
        <mxCell id="QPeFIXPxmIHF3lI81vWk-77" style="shape=tableRow;horizontal=0;startSize=0;swimlaneHead=0;swimlaneBody=0;strokeColor=inherit;top=0;left=0;bottom=0;right=0;collapsible=0;dropTarget=0;fillColor=none;points=[[0,0.5],[1,0.5]];portConstraint=eastwest;fontSize=16;" vertex="1" parent="QPeFIXPxmIHF3lI81vWk-55">
          <mxGeometry y="190" width="280" height="40" as="geometry" />
        </mxCell>
        <mxCell id="QPeFIXPxmIHF3lI81vWk-78" value="DOC_LANDLORD_PRODUCT" style="shape=partialRectangle;html=1;whiteSpace=wrap;connectable=0;strokeColor=inherit;overflow=hidden;fillColor=none;top=0;left=0;bottom=0;right=0;pointerEvents=1;fontSize=16;" vertex="1" parent="QPeFIXPxmIHF3lI81vWk-77">
          <mxGeometry width="280" height="40" as="geometry">
            <mxRectangle width="280" height="40" as="alternateBounds" />
          </mxGeometry>
        </mxCell>
        <mxCell id="QPeFIXPxmIHF3lI81vWk-79" style="shape=tableRow;horizontal=0;startSize=0;swimlaneHead=0;swimlaneBody=0;strokeColor=inherit;top=0;left=0;bottom=0;right=0;collapsible=0;dropTarget=0;fillColor=none;points=[[0,0.5],[1,0.5]];portConstraint=eastwest;fontSize=16;" vertex="1" parent="QPeFIXPxmIHF3lI81vWk-55">
          <mxGeometry y="230" width="280" height="40" as="geometry" />
        </mxCell>
        <mxCell id="QPeFIXPxmIHF3lI81vWk-80" value="BANK_ACCOUNT_ID" style="shape=partialRectangle;html=1;whiteSpace=wrap;connectable=0;strokeColor=inherit;overflow=hidden;fillColor=none;top=0;left=0;bottom=0;right=0;pointerEvents=1;fontSize=16;" vertex="1" parent="QPeFIXPxmIHF3lI81vWk-79">
          <mxGeometry width="280" height="40" as="geometry">
            <mxRectangle width="280" height="40" as="alternateBounds" />
          </mxGeometry>
        </mxCell>
        <mxCell id="QPeFIXPxmIHF3lI81vWk-81" value="" style="endArrow=classic;startArrow=classic;html=1;rounded=0;exitX=1;exitY=0.5;exitDx=0;exitDy=0;entryX=0;entryY=0.5;entryDx=0;entryDy=0;" edge="1" parent="1" source="QPeFIXPxmIHF3lI81vWk-43" target="QPeFIXPxmIHF3lI81vWk-68">
          <mxGeometry width="50" height="50" relative="1" as="geometry">
            <mxPoint x="210" y="60" as="sourcePoint" />
            <mxPoint x="270" y="60.25" as="targetPoint" />
            <Array as="points" />
          </mxGeometry>
        </mxCell>
        <mxCell id="QPeFIXPxmIHF3lI81vWk-82" value="" style="shape=table;startSize=0;container=1;collapsible=0;childLayout=tableLayout;fontSize=16;" vertex="1" parent="1">
          <mxGeometry x="-70" y="336" width="280" height="210" as="geometry" />
        </mxCell>
        <mxCell id="QPeFIXPxmIHF3lI81vWk-83" value="" style="shape=tableRow;horizontal=0;startSize=0;swimlaneHead=0;swimlaneBody=0;strokeColor=inherit;top=0;left=0;bottom=0;right=0;collapsible=0;dropTarget=0;fillColor=none;points=[[0,0.5],[1,0.5]];portConstraint=eastwest;fontSize=16;" vertex="1" parent="QPeFIXPxmIHF3lI81vWk-82">
          <mxGeometry width="280" height="50" as="geometry" />
        </mxCell>
        <mxCell id="QPeFIXPxmIHF3lI81vWk-84" value="(Documents)DOC_Database" style="shape=partialRectangle;html=1;whiteSpace=wrap;connectable=0;strokeColor=inherit;overflow=hidden;fillColor=none;top=0;left=0;bottom=0;right=0;pointerEvents=1;fontSize=16;" vertex="1" parent="QPeFIXPxmIHF3lI81vWk-83">
          <mxGeometry width="280" height="50" as="geometry">
            <mxRectangle width="280" height="50" as="alternateBounds" />
          </mxGeometry>
        </mxCell>
        <mxCell id="QPeFIXPxmIHF3lI81vWk-87" value="" style="shape=tableRow;horizontal=0;startSize=0;swimlaneHead=0;swimlaneBody=0;strokeColor=inherit;top=0;left=0;bottom=0;right=0;collapsible=0;dropTarget=0;fillColor=none;points=[[0,0.5],[1,0.5]];portConstraint=eastwest;fontSize=16;" vertex="1" parent="QPeFIXPxmIHF3lI81vWk-82">
          <mxGeometry y="50" width="280" height="40" as="geometry" />
        </mxCell>
        <mxCell id="QPeFIXPxmIHF3lI81vWk-88" value="Guest_DOC_Country_Residence" style="shape=partialRectangle;html=1;whiteSpace=wrap;connectable=0;strokeColor=inherit;overflow=hidden;fillColor=none;top=0;left=0;bottom=0;right=0;pointerEvents=1;fontSize=16;" vertex="1" parent="QPeFIXPxmIHF3lI81vWk-87">
          <mxGeometry width="280" height="40" as="geometry">
            <mxRectangle width="280" height="40" as="alternateBounds" />
          </mxGeometry>
        </mxCell>
        <mxCell id="QPeFIXPxmIHF3lI81vWk-95" style="shape=tableRow;horizontal=0;startSize=0;swimlaneHead=0;swimlaneBody=0;strokeColor=inherit;top=0;left=0;bottom=0;right=0;collapsible=0;dropTarget=0;fillColor=none;points=[[0,0.5],[1,0.5]];portConstraint=eastwest;fontSize=16;" vertex="1" parent="QPeFIXPxmIHF3lI81vWk-82">
          <mxGeometry y="90" width="280" height="40" as="geometry" />
        </mxCell>
        <mxCell id="QPeFIXPxmIHF3lI81vWk-96" value="Hosts_DOC_Country_Residence" style="shape=partialRectangle;html=1;whiteSpace=wrap;connectable=0;strokeColor=inherit;overflow=hidden;fillColor=none;top=0;left=0;bottom=0;right=0;pointerEvents=1;fontSize=16;" vertex="1" parent="QPeFIXPxmIHF3lI81vWk-95">
          <mxGeometry width="280" height="40" as="geometry">
            <mxRectangle width="280" height="40" as="alternateBounds" />
          </mxGeometry>
        </mxCell>
        <mxCell id="QPeFIXPxmIHF3lI81vWk-97" style="shape=tableRow;horizontal=0;startSize=0;swimlaneHead=0;swimlaneBody=0;strokeColor=inherit;top=0;left=0;bottom=0;right=0;collapsible=0;dropTarget=0;fillColor=none;points=[[0,0.5],[1,0.5]];portConstraint=eastwest;fontSize=16;" vertex="1" parent="QPeFIXPxmIHF3lI81vWk-82">
          <mxGeometry y="130" width="280" height="40" as="geometry" />
        </mxCell>
        <mxCell id="QPeFIXPxmIHF3lI81vWk-98" value="Hosts_DOC_Landlord_product" style="shape=partialRectangle;html=1;whiteSpace=wrap;connectable=0;strokeColor=inherit;overflow=hidden;fillColor=none;top=0;left=0;bottom=0;right=0;pointerEvents=1;fontSize=16;" vertex="1" parent="QPeFIXPxmIHF3lI81vWk-97">
          <mxGeometry width="280" height="40" as="geometry">
            <mxRectangle width="280" height="40" as="alternateBounds" />
          </mxGeometry>
        </mxCell>
        <mxCell id="QPeFIXPxmIHF3lI81vWk-99" style="shape=tableRow;horizontal=0;startSize=0;swimlaneHead=0;swimlaneBody=0;strokeColor=inherit;top=0;left=0;bottom=0;right=0;collapsible=0;dropTarget=0;fillColor=none;points=[[0,0.5],[1,0.5]];portConstraint=eastwest;fontSize=16;" vertex="1" parent="QPeFIXPxmIHF3lI81vWk-82">
          <mxGeometry y="170" width="280" height="40" as="geometry" />
        </mxCell>
        <mxCell id="QPeFIXPxmIHF3lI81vWk-100" value="Bank_Acc_Docs" style="shape=partialRectangle;html=1;whiteSpace=wrap;connectable=0;strokeColor=inherit;overflow=hidden;fillColor=none;top=0;left=0;bottom=0;right=0;pointerEvents=1;fontSize=16;" vertex="1" parent="QPeFIXPxmIHF3lI81vWk-99">
          <mxGeometry width="280" height="40" as="geometry">
            <mxRectangle width="280" height="40" as="alternateBounds" />
          </mxGeometry>
        </mxCell>
        <mxCell id="QPeFIXPxmIHF3lI81vWk-103" value="Guests_database" style="shape=table;startSize=30;container=1;collapsible=0;childLayout=tableLayout;strokeColor=default;fontSize=16;" vertex="1" parent="1">
          <mxGeometry x="640" width="280" height="230" as="geometry" />
        </mxCell>
        <mxCell id="QPeFIXPxmIHF3lI81vWk-104" style="shape=tableRow;horizontal=0;startSize=0;swimlaneHead=0;swimlaneBody=0;strokeColor=inherit;top=0;left=0;bottom=0;right=0;collapsible=0;dropTarget=0;fillColor=none;points=[[0,0.5],[1,0.5]];portConstraint=eastwest;fontSize=16;" vertex="1" parent="QPeFIXPxmIHF3lI81vWk-103">
          <mxGeometry y="30" width="280" height="40" as="geometry" />
        </mxCell>
        <mxCell id="QPeFIXPxmIHF3lI81vWk-105" value="ID" style="shape=partialRectangle;html=1;whiteSpace=wrap;connectable=0;strokeColor=inherit;overflow=hidden;fillColor=none;top=0;left=0;bottom=0;right=0;pointerEvents=1;fontSize=16;" vertex="1" parent="QPeFIXPxmIHF3lI81vWk-104">
          <mxGeometry width="280" height="40" as="geometry">
            <mxRectangle width="280" height="40" as="alternateBounds" />
          </mxGeometry>
        </mxCell>
        <mxCell id="QPeFIXPxmIHF3lI81vWk-106" value="" style="shape=tableRow;horizontal=0;startSize=0;swimlaneHead=0;swimlaneBody=0;strokeColor=inherit;top=0;left=0;bottom=0;right=0;collapsible=0;dropTarget=0;fillColor=none;points=[[0,0.5],[1,0.5]];portConstraint=eastwest;fontSize=16;" vertex="1" parent="QPeFIXPxmIHF3lI81vWk-103">
          <mxGeometry y="70" width="280" height="40" as="geometry" />
        </mxCell>
        <mxCell id="QPeFIXPxmIHF3lI81vWk-107" value="NAME,SURNAME" style="shape=partialRectangle;html=1;whiteSpace=wrap;connectable=0;strokeColor=inherit;overflow=hidden;fillColor=none;top=0;left=0;bottom=0;right=0;pointerEvents=1;fontSize=16;" vertex="1" parent="QPeFIXPxmIHF3lI81vWk-106">
          <mxGeometry width="280" height="40" as="geometry">
            <mxRectangle width="280" height="40" as="alternateBounds" />
          </mxGeometry>
        </mxCell>
        <mxCell id="QPeFIXPxmIHF3lI81vWk-108" value="" style="shape=tableRow;horizontal=0;startSize=0;swimlaneHead=0;swimlaneBody=0;strokeColor=inherit;top=0;left=0;bottom=0;right=0;collapsible=0;dropTarget=0;fillColor=none;points=[[0,0.5],[1,0.5]];portConstraint=eastwest;fontSize=16;" vertex="1" parent="QPeFIXPxmIHF3lI81vWk-103">
          <mxGeometry y="110" width="280" height="40" as="geometry" />
        </mxCell>
        <mxCell id="QPeFIXPxmIHF3lI81vWk-109" value="COUNTRY RESIDENCE" style="shape=partialRectangle;html=1;whiteSpace=wrap;connectable=0;strokeColor=inherit;overflow=hidden;fillColor=none;top=0;left=0;bottom=0;right=0;pointerEvents=1;fontSize=16;" vertex="1" parent="QPeFIXPxmIHF3lI81vWk-108">
          <mxGeometry width="280" height="40" as="geometry">
            <mxRectangle width="280" height="40" as="alternateBounds" />
          </mxGeometry>
        </mxCell>
        <mxCell id="QPeFIXPxmIHF3lI81vWk-110" style="shape=tableRow;horizontal=0;startSize=0;swimlaneHead=0;swimlaneBody=0;strokeColor=inherit;top=0;left=0;bottom=0;right=0;collapsible=0;dropTarget=0;fillColor=none;points=[[0,0.5],[1,0.5]];portConstraint=eastwest;fontSize=16;" vertex="1" parent="QPeFIXPxmIHF3lI81vWk-103">
          <mxGeometry y="150" width="280" height="40" as="geometry" />
        </mxCell>
        <mxCell id="QPeFIXPxmIHF3lI81vWk-111" value="DOC_OF_RESIDENCE" style="shape=partialRectangle;html=1;whiteSpace=wrap;connectable=0;strokeColor=inherit;overflow=hidden;fillColor=none;top=0;left=0;bottom=0;right=0;pointerEvents=1;fontSize=16;" vertex="1" parent="QPeFIXPxmIHF3lI81vWk-110">
          <mxGeometry width="280" height="40" as="geometry">
            <mxRectangle width="280" height="40" as="alternateBounds" />
          </mxGeometry>
        </mxCell>
        <mxCell id="QPeFIXPxmIHF3lI81vWk-112" style="shape=tableRow;horizontal=0;startSize=0;swimlaneHead=0;swimlaneBody=0;strokeColor=inherit;top=0;left=0;bottom=0;right=0;collapsible=0;dropTarget=0;fillColor=none;points=[[0,0.5],[1,0.5]];portConstraint=eastwest;fontSize=16;" vertex="1" parent="QPeFIXPxmIHF3lI81vWk-103">
          <mxGeometry y="190" width="280" height="40" as="geometry" />
        </mxCell>
        <mxCell id="QPeFIXPxmIHF3lI81vWk-113" value="BANK_ACCOUNT_ID" style="shape=partialRectangle;html=1;whiteSpace=wrap;connectable=0;strokeColor=inherit;overflow=hidden;fillColor=none;top=0;left=0;bottom=0;right=0;pointerEvents=1;fontSize=16;" vertex="1" parent="QPeFIXPxmIHF3lI81vWk-112">
          <mxGeometry width="280" height="40" as="geometry">
            <mxRectangle width="280" height="40" as="alternateBounds" />
          </mxGeometry>
        </mxCell>
        <mxCell id="QPeFIXPxmIHF3lI81vWk-121" value="" style="endArrow=classic;html=1;rounded=0;exitX=0.999;exitY=0.733;exitDx=0;exitDy=0;exitPerimeter=0;entryX=0.286;entryY=1;entryDx=0;entryDy=0;entryPerimeter=0;" edge="1" parent="1" source="QPeFIXPxmIHF3lI81vWk-99" target="QPeFIXPxmIHF3lI81vWk-79">
          <mxGeometry width="50" height="50" relative="1" as="geometry">
            <mxPoint x="240" y="480" as="sourcePoint" />
            <mxPoint x="360" y="380" as="targetPoint" />
            <Array as="points">
              <mxPoint x="360" y="480" />
            </Array>
          </mxGeometry>
        </mxCell>
        <mxCell id="QPeFIXPxmIHF3lI81vWk-126" value="" style="edgeStyle=segmentEdgeStyle;endArrow=classic;html=1;curved=0;rounded=0;endSize=8;startSize=8;entryX=0.143;entryY=1.066;entryDx=0;entryDy=0;entryPerimeter=0;exitX=0.998;exitY=0.723;exitDx=0;exitDy=0;exitPerimeter=0;" edge="1" parent="1" source="QPeFIXPxmIHF3lI81vWk-99" target="QPeFIXPxmIHF3lI81vWk-112">
          <mxGeometry width="50" height="50" relative="1" as="geometry">
            <mxPoint x="680" y="520" as="sourcePoint" />
            <mxPoint x="680" y="430" as="targetPoint" />
            <Array as="points">
              <mxPoint x="680" y="535" />
            </Array>
          </mxGeometry>
        </mxCell>
        <mxCell id="QPeFIXPxmIHF3lI81vWk-127" value="" style="edgeStyle=elbowEdgeStyle;elbow=horizontal;endArrow=classic;html=1;curved=0;rounded=0;endSize=8;startSize=8;exitX=1;exitY=0.5;exitDx=0;exitDy=0;" edge="1" parent="1" source="QPeFIXPxmIHF3lI81vWk-97">
          <mxGeometry width="50" height="50" relative="1" as="geometry">
            <mxPoint x="230" y="270" as="sourcePoint" />
            <mxPoint x="280" y="220" as="targetPoint" />
            <Array as="points">
              <mxPoint x="260" y="250" />
            </Array>
          </mxGeometry>
        </mxCell>
        <mxCell id="QPeFIXPxmIHF3lI81vWk-128" value="" style="edgeStyle=elbowEdgeStyle;elbow=horizontal;endArrow=classic;html=1;curved=0;rounded=0;endSize=8;startSize=8;exitX=1;exitY=0.5;exitDx=0;exitDy=0;" edge="1" parent="1" source="QPeFIXPxmIHF3lI81vWk-95" target="QPeFIXPxmIHF3lI81vWk-75">
          <mxGeometry width="50" height="50" relative="1" as="geometry">
            <mxPoint x="235" y="450" as="sourcePoint" />
            <mxPoint x="270" y="170" as="targetPoint" />
            <Array as="points">
              <mxPoint x="240" y="280" />
              <mxPoint x="235" y="80" />
            </Array>
          </mxGeometry>
        </mxCell>
        <mxCell id="QPeFIXPxmIHF3lI81vWk-134" value="" style="endArrow=classic;html=1;rounded=0;" edge="1" parent="1">
          <mxGeometry width="50" height="50" relative="1" as="geometry">
            <mxPoint x="-130" y="410" as="sourcePoint" />
            <mxPoint x="-70" y="410" as="targetPoint" />
          </mxGeometry>
        </mxCell>
        <mxCell id="QPeFIXPxmIHF3lI81vWk-135" value="" style="edgeStyle=segmentEdgeStyle;endArrow=classic;html=1;curved=0;rounded=0;endSize=8;startSize=8;entryX=1;entryY=0.5;entryDx=0;entryDy=0;" edge="1" parent="1" target="QPeFIXPxmIHF3lI81vWk-110">
          <mxGeometry width="50" height="50" relative="1" as="geometry">
            <mxPoint x="-130" y="410" as="sourcePoint" />
            <mxPoint x="970" y="170" as="targetPoint" />
            <Array as="points">
              <mxPoint x="-130" y="600" />
              <mxPoint x="970" y="600" />
              <mxPoint x="970" y="170" />
            </Array>
          </mxGeometry>
        </mxCell>
        <mxCell id="QPeFIXPxmIHF3lI81vWk-137" value="" style="shape=table;startSize=0;container=1;collapsible=0;childLayout=tableLayout;fontSize=16;" vertex="1" parent="1">
          <mxGeometry x="-480" y="-14" width="280" height="360" as="geometry" />
        </mxCell>
        <mxCell id="QPeFIXPxmIHF3lI81vWk-138" value="" style="shape=tableRow;horizontal=0;startSize=0;swimlaneHead=0;swimlaneBody=0;strokeColor=inherit;top=0;left=0;bottom=0;right=0;collapsible=0;dropTarget=0;fillColor=none;points=[[0,0.5],[1,0.5]];portConstraint=eastwest;fontSize=16;" vertex="1" parent="QPeFIXPxmIHF3lI81vWk-137">
          <mxGeometry width="280" height="40" as="geometry" />
        </mxCell>
        <mxCell id="QPeFIXPxmIHF3lI81vWk-139" value="Hosts_Products(Appartments)" style="shape=partialRectangle;html=1;whiteSpace=wrap;connectable=0;strokeColor=inherit;overflow=hidden;fillColor=none;top=0;left=0;bottom=0;right=0;pointerEvents=1;fontSize=16;" vertex="1" parent="QPeFIXPxmIHF3lI81vWk-138">
          <mxGeometry width="280" height="40" as="geometry">
            <mxRectangle width="280" height="40" as="alternateBounds" />
          </mxGeometry>
        </mxCell>
        <mxCell id="QPeFIXPxmIHF3lI81vWk-158" style="shape=tableRow;horizontal=0;startSize=0;swimlaneHead=0;swimlaneBody=0;strokeColor=inherit;top=0;left=0;bottom=0;right=0;collapsible=0;dropTarget=0;fillColor=none;points=[[0,0.5],[1,0.5]];portConstraint=eastwest;fontSize=16;" vertex="1" parent="QPeFIXPxmIHF3lI81vWk-137">
          <mxGeometry y="40" width="280" height="40" as="geometry" />
        </mxCell>
        <mxCell id="QPeFIXPxmIHF3lI81vWk-159" value="ID" style="shape=partialRectangle;html=1;whiteSpace=wrap;connectable=0;strokeColor=inherit;overflow=hidden;fillColor=none;top=0;left=0;bottom=0;right=0;pointerEvents=1;fontSize=16;" vertex="1" parent="QPeFIXPxmIHF3lI81vWk-158">
          <mxGeometry width="280" height="40" as="geometry">
            <mxRectangle width="280" height="40" as="alternateBounds" />
          </mxGeometry>
        </mxCell>
        <mxCell id="QPeFIXPxmIHF3lI81vWk-156" style="shape=tableRow;horizontal=0;startSize=0;swimlaneHead=0;swimlaneBody=0;strokeColor=inherit;top=0;left=0;bottom=0;right=0;collapsible=0;dropTarget=0;fillColor=none;points=[[0,0.5],[1,0.5]];portConstraint=eastwest;fontSize=16;" vertex="1" parent="QPeFIXPxmIHF3lI81vWk-137">
          <mxGeometry y="80" width="280" height="40" as="geometry" />
        </mxCell>
        <mxCell id="QPeFIXPxmIHF3lI81vWk-157" value="Name" style="shape=partialRectangle;html=1;whiteSpace=wrap;connectable=0;strokeColor=inherit;overflow=hidden;fillColor=none;top=0;left=0;bottom=0;right=0;pointerEvents=1;fontSize=16;" vertex="1" parent="QPeFIXPxmIHF3lI81vWk-156">
          <mxGeometry width="280" height="40" as="geometry">
            <mxRectangle width="280" height="40" as="alternateBounds" />
          </mxGeometry>
        </mxCell>
        <mxCell id="QPeFIXPxmIHF3lI81vWk-154" style="shape=tableRow;horizontal=0;startSize=0;swimlaneHead=0;swimlaneBody=0;strokeColor=inherit;top=0;left=0;bottom=0;right=0;collapsible=0;dropTarget=0;fillColor=none;points=[[0,0.5],[1,0.5]];portConstraint=eastwest;fontSize=16;" vertex="1" parent="QPeFIXPxmIHF3lI81vWk-137">
          <mxGeometry y="120" width="280" height="40" as="geometry" />
        </mxCell>
        <mxCell id="QPeFIXPxmIHF3lI81vWk-155" value="Amount_ppl__Residence" style="shape=partialRectangle;html=1;whiteSpace=wrap;connectable=0;strokeColor=inherit;overflow=hidden;fillColor=none;top=0;left=0;bottom=0;right=0;pointerEvents=1;fontSize=16;" vertex="1" parent="QPeFIXPxmIHF3lI81vWk-154">
          <mxGeometry width="280" height="40" as="geometry">
            <mxRectangle width="280" height="40" as="alternateBounds" />
          </mxGeometry>
        </mxCell>
        <mxCell id="QPeFIXPxmIHF3lI81vWk-152" style="shape=tableRow;horizontal=0;startSize=0;swimlaneHead=0;swimlaneBody=0;strokeColor=inherit;top=0;left=0;bottom=0;right=0;collapsible=0;dropTarget=0;fillColor=none;points=[[0,0.5],[1,0.5]];portConstraint=eastwest;fontSize=16;" vertex="1" parent="QPeFIXPxmIHF3lI81vWk-137">
          <mxGeometry y="160" width="280" height="40" as="geometry" />
        </mxCell>
        <mxCell id="QPeFIXPxmIHF3lI81vWk-153" value="Price" style="shape=partialRectangle;html=1;whiteSpace=wrap;connectable=0;strokeColor=inherit;overflow=hidden;fillColor=none;top=0;left=0;bottom=0;right=0;pointerEvents=1;fontSize=16;" vertex="1" parent="QPeFIXPxmIHF3lI81vWk-152">
          <mxGeometry width="280" height="40" as="geometry">
            <mxRectangle width="280" height="40" as="alternateBounds" />
          </mxGeometry>
        </mxCell>
        <mxCell id="QPeFIXPxmIHF3lI81vWk-150" style="shape=tableRow;horizontal=0;startSize=0;swimlaneHead=0;swimlaneBody=0;strokeColor=inherit;top=0;left=0;bottom=0;right=0;collapsible=0;dropTarget=0;fillColor=none;points=[[0,0.5],[1,0.5]];portConstraint=eastwest;fontSize=16;" vertex="1" parent="QPeFIXPxmIHF3lI81vWk-137">
          <mxGeometry y="200" width="280" height="40" as="geometry" />
        </mxCell>
        <mxCell id="QPeFIXPxmIHF3lI81vWk-151" value="Animals_apprve" style="shape=partialRectangle;html=1;whiteSpace=wrap;connectable=0;strokeColor=inherit;overflow=hidden;fillColor=none;top=0;left=0;bottom=0;right=0;pointerEvents=1;fontSize=16;" vertex="1" parent="QPeFIXPxmIHF3lI81vWk-150">
          <mxGeometry width="280" height="40" as="geometry">
            <mxRectangle width="280" height="40" as="alternateBounds" />
          </mxGeometry>
        </mxCell>
        <mxCell id="QPeFIXPxmIHF3lI81vWk-142" value="" style="shape=tableRow;horizontal=0;startSize=0;swimlaneHead=0;swimlaneBody=0;strokeColor=inherit;top=0;left=0;bottom=0;right=0;collapsible=0;dropTarget=0;fillColor=none;points=[[0,0.5],[1,0.5]];portConstraint=eastwest;fontSize=16;" vertex="1" parent="QPeFIXPxmIHF3lI81vWk-137">
          <mxGeometry y="240" width="280" height="40" as="geometry" />
        </mxCell>
        <mxCell id="QPeFIXPxmIHF3lI81vWk-143" value="Square_meters_product" style="shape=partialRectangle;html=1;whiteSpace=wrap;connectable=0;strokeColor=inherit;overflow=hidden;fillColor=none;top=0;left=0;bottom=0;right=0;pointerEvents=1;fontSize=16;" vertex="1" parent="QPeFIXPxmIHF3lI81vWk-142">
          <mxGeometry width="280" height="40" as="geometry">
            <mxRectangle width="280" height="40" as="alternateBounds" />
          </mxGeometry>
        </mxCell>
        <mxCell id="QPeFIXPxmIHF3lI81vWk-160" style="shape=tableRow;horizontal=0;startSize=0;swimlaneHead=0;swimlaneBody=0;strokeColor=inherit;top=0;left=0;bottom=0;right=0;collapsible=0;dropTarget=0;fillColor=none;points=[[0,0.5],[1,0.5]];portConstraint=eastwest;fontSize=16;" vertex="1" parent="QPeFIXPxmIHF3lI81vWk-137">
          <mxGeometry y="280" width="280" height="40" as="geometry" />
        </mxCell>
        <mxCell id="QPeFIXPxmIHF3lI81vWk-161" value="product_consist_facilities" style="shape=partialRectangle;html=1;whiteSpace=wrap;connectable=0;strokeColor=inherit;overflow=hidden;fillColor=none;top=0;left=0;bottom=0;right=0;pointerEvents=1;fontSize=16;" vertex="1" parent="QPeFIXPxmIHF3lI81vWk-160">
          <mxGeometry width="280" height="40" as="geometry">
            <mxRectangle width="280" height="40" as="alternateBounds" />
          </mxGeometry>
        </mxCell>
        <mxCell id="QPeFIXPxmIHF3lI81vWk-165" style="shape=tableRow;horizontal=0;startSize=0;swimlaneHead=0;swimlaneBody=0;strokeColor=inherit;top=0;left=0;bottom=0;right=0;collapsible=0;dropTarget=0;fillColor=none;points=[[0,0.5],[1,0.5]];portConstraint=eastwest;fontSize=16;" vertex="1" parent="QPeFIXPxmIHF3lI81vWk-137">
          <mxGeometry y="320" width="280" height="40" as="geometry" />
        </mxCell>
        <mxCell id="QPeFIXPxmIHF3lI81vWk-166" value="hosts_remarks" style="shape=partialRectangle;html=1;whiteSpace=wrap;connectable=0;strokeColor=inherit;overflow=hidden;fillColor=none;top=0;left=0;bottom=0;right=0;pointerEvents=1;fontSize=16;" vertex="1" parent="QPeFIXPxmIHF3lI81vWk-165">
          <mxGeometry width="280" height="40" as="geometry">
            <mxRectangle width="280" height="40" as="alternateBounds" />
          </mxGeometry>
        </mxCell>
        <mxCell id="QPeFIXPxmIHF3lI81vWk-162" value="" style="edgeStyle=elbowEdgeStyle;elbow=horizontal;endArrow=classic;html=1;curved=0;rounded=0;endSize=8;startSize=8;exitX=1;exitY=0.5;exitDx=0;exitDy=0;" edge="1" parent="1" source="QPeFIXPxmIHF3lI81vWk-158">
          <mxGeometry width="50" height="50" relative="1" as="geometry">
            <mxPoint x="-200" y="-4" as="sourcePoint" />
            <mxPoint x="-80" y="204" as="targetPoint" />
            <Array as="points">
              <mxPoint x="-140" y="204" />
              <mxPoint x="-130" y="204" />
            </Array>
          </mxGeometry>
        </mxCell>
        <mxCell id="QPeFIXPxmIHF3lI81vWk-167" value="" style="shape=table;startSize=0;container=1;collapsible=0;childLayout=tableLayout;fontSize=16;" vertex="1" parent="1">
          <mxGeometry x="-810" y="-4" width="250" height="340" as="geometry" />
        </mxCell>
        <mxCell id="QPeFIXPxmIHF3lI81vWk-172" value="" style="shape=tableRow;horizontal=0;startSize=0;swimlaneHead=0;swimlaneBody=0;strokeColor=inherit;top=0;left=0;bottom=0;right=0;collapsible=0;dropTarget=0;fillColor=none;points=[[0,0.5],[1,0.5]];portConstraint=eastwest;fontSize=16;" vertex="1" parent="QPeFIXPxmIHF3lI81vWk-167">
          <mxGeometry width="250" height="170" as="geometry" />
        </mxCell>
        <mxCell id="QPeFIXPxmIHF3lI81vWk-173" value="HOSTS_PRODUCT_FACILITIES" style="shape=partialRectangle;html=1;whiteSpace=wrap;connectable=0;strokeColor=inherit;overflow=hidden;fillColor=none;top=0;left=0;bottom=0;right=0;pointerEvents=1;fontSize=16;" vertex="1" parent="QPeFIXPxmIHF3lI81vWk-172">
          <mxGeometry width="250" height="170" as="geometry">
            <mxRectangle width="250" height="170" as="alternateBounds" />
          </mxGeometry>
        </mxCell>
        <mxCell id="QPeFIXPxmIHF3lI81vWk-176" value="" style="shape=tableRow;horizontal=0;startSize=0;swimlaneHead=0;swimlaneBody=0;strokeColor=inherit;top=0;left=0;bottom=0;right=0;collapsible=0;dropTarget=0;fillColor=none;points=[[0,0.5],[1,0.5]];portConstraint=eastwest;fontSize=16;" vertex="1" parent="QPeFIXPxmIHF3lI81vWk-167">
          <mxGeometry y="170" width="250" height="170" as="geometry" />
        </mxCell>
        <mxCell id="QPeFIXPxmIHF3lI81vWk-177" value="LIST OF FACILITIES...&lt;br&gt;&lt;span style=&quot;font-family: UniversLTCYR-55, sans-serif; text-align: left; background-color: rgb(255, 255, 255);&quot;&gt;&amp;nbsp;A/C, refrigerator, etc&lt;br&gt;If facility == True -&amp;gt;&lt;/span&gt;&lt;div&gt;&lt;span style=&quot;font-family: UniversLTCYR-55, sans-serif; text-align: left; background-color: rgb(255, 255, 255);&quot;&gt;product_facilities.insert(facility)&lt;/span&gt;&lt;/div&gt;" style="shape=partialRectangle;html=1;whiteSpace=wrap;connectable=0;strokeColor=inherit;overflow=hidden;fillColor=none;top=0;left=0;bottom=0;right=0;pointerEvents=1;fontSize=16;" vertex="1" parent="QPeFIXPxmIHF3lI81vWk-176">
          <mxGeometry width="250" height="170" as="geometry">
            <mxRectangle width="250" height="170" as="alternateBounds" />
          </mxGeometry>
        </mxCell>
        <mxCell id="QPeFIXPxmIHF3lI81vWk-180" value="" style="edgeStyle=elbowEdgeStyle;elbow=horizontal;endArrow=classic;html=1;curved=0;rounded=0;endSize=8;startSize=8;entryX=0;entryY=0.5;entryDx=0;entryDy=0;exitX=1;exitY=0.5;exitDx=0;exitDy=0;" edge="1" parent="1" source="QPeFIXPxmIHF3lI81vWk-176" target="QPeFIXPxmIHF3lI81vWk-160">
          <mxGeometry width="50" height="50" relative="1" as="geometry">
            <mxPoint x="-570" y="460" as="sourcePoint" />
            <mxPoint x="-490" y="570" as="targetPoint" />
          </mxGeometry>
        </mxCell>
        <mxCell id="QPeFIXPxmIHF3lI81vWk-181" value="" style="endArrow=classic;html=1;rounded=0;exitX=0;exitY=0.5;exitDx=0;exitDy=0;entryX=1;entryY=0.5;entryDx=0;entryDy=0;" edge="1" parent="1" source="QPeFIXPxmIHF3lI81vWk-156" target="QPeFIXPxmIHF3lI81vWk-172">
          <mxGeometry width="50" height="50" relative="1" as="geometry">
            <mxPoint x="-560" y="320" as="sourcePoint" />
            <mxPoint x="-540" y="-80" as="targetPoint" />
          </mxGeometry>
        </mxCell>
        <mxCell id="QPeFIXPxmIHF3lI81vWk-184" value="&lt;font style=&quot;font-size: 30px;&quot;&gt;AIR BNB&lt;/font&gt;" style="ellipse;whiteSpace=wrap;html=1;" vertex="1" parent="1">
          <mxGeometry x="160" y="-550" width="890" height="330" as="geometry" />
        </mxCell>
        <mxCell id="QPeFIXPxmIHF3lI81vWk-185" value="" style="shape=table;startSize=0;container=1;collapsible=0;childLayout=tableLayout;fontSize=16;" vertex="1" parent="1">
          <mxGeometry x="1066" y="-4" width="350" height="390" as="geometry" />
        </mxCell>
        <mxCell id="QPeFIXPxmIHF3lI81vWk-186" value="" style="shape=tableRow;horizontal=0;startSize=0;swimlaneHead=0;swimlaneBody=0;strokeColor=inherit;top=0;left=0;bottom=0;right=0;collapsible=0;dropTarget=0;fillColor=none;points=[[0,0.5],[1,0.5]];portConstraint=eastwest;fontSize=16;" vertex="1" parent="QPeFIXPxmIHF3lI81vWk-185">
          <mxGeometry width="350" height="50" as="geometry" />
        </mxCell>
        <mxCell id="QPeFIXPxmIHF3lI81vWk-187" value="Guests" style="shape=partialRectangle;html=1;whiteSpace=wrap;connectable=0;strokeColor=inherit;overflow=hidden;fillColor=none;top=0;left=0;bottom=0;right=0;pointerEvents=1;fontSize=16;" vertex="1" parent="QPeFIXPxmIHF3lI81vWk-186">
          <mxGeometry width="350" height="50" as="geometry">
            <mxRectangle width="350" height="50" as="alternateBounds" />
          </mxGeometry>
        </mxCell>
        <mxCell id="QPeFIXPxmIHF3lI81vWk-202" style="shape=tableRow;horizontal=0;startSize=0;swimlaneHead=0;swimlaneBody=0;strokeColor=inherit;top=0;left=0;bottom=0;right=0;collapsible=0;dropTarget=0;fillColor=none;points=[[0,0.5],[1,0.5]];portConstraint=eastwest;fontSize=16;" vertex="1" parent="QPeFIXPxmIHF3lI81vWk-185">
          <mxGeometry y="50" width="350" height="80" as="geometry" />
        </mxCell>
        <mxCell id="QPeFIXPxmIHF3lI81vWk-203" value="ID" style="shape=partialRectangle;html=1;whiteSpace=wrap;connectable=0;strokeColor=inherit;overflow=hidden;fillColor=none;top=0;left=0;bottom=0;right=0;pointerEvents=1;fontSize=16;" vertex="1" parent="QPeFIXPxmIHF3lI81vWk-202">
          <mxGeometry width="350" height="80" as="geometry">
            <mxRectangle width="350" height="80" as="alternateBounds" />
          </mxGeometry>
        </mxCell>
        <mxCell id="QPeFIXPxmIHF3lI81vWk-200" style="shape=tableRow;horizontal=0;startSize=0;swimlaneHead=0;swimlaneBody=0;strokeColor=inherit;top=0;left=0;bottom=0;right=0;collapsible=0;dropTarget=0;fillColor=none;points=[[0,0.5],[1,0.5]];portConstraint=eastwest;fontSize=16;" vertex="1" parent="QPeFIXPxmIHF3lI81vWk-185">
          <mxGeometry y="130" width="350" height="80" as="geometry" />
        </mxCell>
        <mxCell id="QPeFIXPxmIHF3lI81vWk-201" value="Check_product" style="shape=partialRectangle;html=1;whiteSpace=wrap;connectable=0;strokeColor=inherit;overflow=hidden;fillColor=none;top=0;left=0;bottom=0;right=0;pointerEvents=1;fontSize=16;" vertex="1" parent="QPeFIXPxmIHF3lI81vWk-200">
          <mxGeometry width="350" height="80" as="geometry">
            <mxRectangle width="350" height="80" as="alternateBounds" />
          </mxGeometry>
        </mxCell>
        <mxCell id="QPeFIXPxmIHF3lI81vWk-198" style="shape=tableRow;horizontal=0;startSize=0;swimlaneHead=0;swimlaneBody=0;strokeColor=inherit;top=0;left=0;bottom=0;right=0;collapsible=0;dropTarget=0;fillColor=none;points=[[0,0.5],[1,0.5]];portConstraint=eastwest;fontSize=16;" vertex="1" parent="QPeFIXPxmIHF3lI81vWk-185">
          <mxGeometry y="210" width="350" height="80" as="geometry" />
        </mxCell>
        <mxCell id="QPeFIXPxmIHF3lI81vWk-199" value="Check_Product_reservtn" style="shape=partialRectangle;html=1;whiteSpace=wrap;connectable=0;strokeColor=inherit;overflow=hidden;fillColor=none;top=0;left=0;bottom=0;right=0;pointerEvents=1;fontSize=16;" vertex="1" parent="QPeFIXPxmIHF3lI81vWk-198">
          <mxGeometry width="350" height="80" as="geometry">
            <mxRectangle width="350" height="80" as="alternateBounds" />
          </mxGeometry>
        </mxCell>
        <mxCell id="QPeFIXPxmIHF3lI81vWk-190" value="" style="shape=tableRow;horizontal=0;startSize=0;swimlaneHead=0;swimlaneBody=0;strokeColor=inherit;top=0;left=0;bottom=0;right=0;collapsible=0;dropTarget=0;fillColor=none;points=[[0,0.5],[1,0.5]];portConstraint=eastwest;fontSize=16;" vertex="1" parent="QPeFIXPxmIHF3lI81vWk-185">
          <mxGeometry y="290" width="350" height="100" as="geometry" />
        </mxCell>
        <mxCell id="QPeFIXPxmIHF3lI81vWk-191" value="Reserve_confirm" style="shape=partialRectangle;html=1;whiteSpace=wrap;connectable=0;strokeColor=inherit;overflow=hidden;fillColor=none;top=0;left=0;bottom=0;right=0;pointerEvents=1;fontSize=16;" vertex="1" parent="QPeFIXPxmIHF3lI81vWk-190">
          <mxGeometry width="350" height="100" as="geometry">
            <mxRectangle width="350" height="100" as="alternateBounds" />
          </mxGeometry>
        </mxCell>
        <mxCell id="QPeFIXPxmIHF3lI81vWk-213" value="" style="endArrow=classic;startArrow=classic;html=1;rounded=0;entryX=1.011;entryY=0.675;entryDx=0;entryDy=0;entryPerimeter=0;" edge="1" parent="QPeFIXPxmIHF3lI81vWk-185" target="QPeFIXPxmIHF3lI81vWk-198">
          <mxGeometry width="50" height="50" relative="1" as="geometry">
            <mxPoint x="354" y="354" as="sourcePoint" />
            <mxPoint x="484" y="244" as="targetPoint" />
            <Array as="points">
              <mxPoint x="514" y="354" />
              <mxPoint x="514" y="264" />
            </Array>
          </mxGeometry>
        </mxCell>
        <mxCell id="QPeFIXPxmIHF3lI81vWk-204" value="" style="endArrow=classic;html=1;rounded=0;" edge="1" parent="1">
          <mxGeometry width="50" height="50" relative="1" as="geometry">
            <mxPoint x="1040" y="-60" as="sourcePoint" />
            <mxPoint x="-120" y="-60" as="targetPoint" />
          </mxGeometry>
        </mxCell>
        <mxCell id="QPeFIXPxmIHF3lI81vWk-205" value="" style="endArrow=none;html=1;rounded=0;" edge="1" parent="1" source="QPeFIXPxmIHF3lI81vWk-200">
          <mxGeometry width="50" height="50" relative="1" as="geometry">
            <mxPoint x="650" y="230" as="sourcePoint" />
            <mxPoint x="1040" y="-60" as="targetPoint" />
            <Array as="points">
              <mxPoint x="1040" y="170" />
            </Array>
          </mxGeometry>
        </mxCell>
        <mxCell id="QPeFIXPxmIHF3lI81vWk-206" value="" style="edgeStyle=segmentEdgeStyle;endArrow=classic;html=1;curved=0;rounded=0;endSize=8;startSize=8;" edge="1" parent="1" target="QPeFIXPxmIHF3lI81vWk-51">
          <mxGeometry width="50" height="50" relative="1" as="geometry">
            <mxPoint x="-120" y="-60" as="sourcePoint" />
            <mxPoint x="-120" y="120" as="targetPoint" />
            <Array as="points">
              <mxPoint x="-120" y="170" />
            </Array>
          </mxGeometry>
        </mxCell>
        <mxCell id="QPeFIXPxmIHF3lI81vWk-208" value="" style="edgeStyle=segmentEdgeStyle;endArrow=classic;html=1;curved=0;rounded=0;endSize=8;startSize=8;" edge="1" parent="1">
          <mxGeometry width="50" height="50" relative="1" as="geometry">
            <mxPoint x="-104" y="-30" as="sourcePoint" />
            <mxPoint x="-80" y="130" as="targetPoint" />
            <Array as="points">
              <mxPoint x="-104" y="40" />
              <mxPoint x="-104" y="130" />
            </Array>
          </mxGeometry>
        </mxCell>
        <mxCell id="QPeFIXPxmIHF3lI81vWk-209" value="" style="endArrow=none;html=1;rounded=0;" edge="1" parent="1">
          <mxGeometry width="50" height="50" relative="1" as="geometry">
            <mxPoint x="-100" y="-30" as="sourcePoint" />
            <mxPoint x="1000" y="-30" as="targetPoint" />
          </mxGeometry>
        </mxCell>
        <mxCell id="QPeFIXPxmIHF3lI81vWk-211" value="" style="endArrow=none;html=1;rounded=0;" edge="1" parent="1">
          <mxGeometry width="50" height="50" relative="1" as="geometry">
            <mxPoint x="1000" y="270" as="sourcePoint" />
            <mxPoint x="1000" y="-30" as="targetPoint" />
          </mxGeometry>
        </mxCell>
        <mxCell id="QPeFIXPxmIHF3lI81vWk-212" value="" style="endArrow=none;html=1;rounded=0;entryX=0.003;entryY=0.703;entryDx=0;entryDy=0;entryPerimeter=0;" edge="1" parent="1" target="QPeFIXPxmIHF3lI81vWk-185">
          <mxGeometry width="50" height="50" relative="1" as="geometry">
            <mxPoint x="1000" y="270.16" as="sourcePoint" />
            <mxPoint x="1060" y="270" as="targetPoint" />
            <Array as="points">
              <mxPoint x="1030" y="270.16" />
            </Array>
          </mxGeometry>
        </mxCell>
        <mxCell id="QPeFIXPxmIHF3lI81vWk-216" value="" style="html=1;shadow=0;dashed=0;align=center;verticalAlign=middle;shape=mxgraph.arrows2.bendDoubleArrow;dy=15;dx=38;arrowHead=55;rounded=1;direction=south;" vertex="1" parent="1">
          <mxGeometry x="1060" y="-420" width="260" height="390" as="geometry" />
        </mxCell>
        <mxCell id="QPeFIXPxmIHF3lI81vWk-217" value="" style="html=1;shadow=0;dashed=0;align=center;verticalAlign=middle;shape=mxgraph.arrows2.bendDoubleArrow;dy=15;dx=38;arrowHead=55;rounded=1;" vertex="1" parent="1">
          <mxGeometry x="-10" y="-420" width="160" height="390" as="geometry" />
        </mxCell>
      </root>
    </mxGraphModel>
  </diagram>
</mxfile>
